<svg width="400" height="400" viewBox="0 0 400 400" xmlns="http://www.w3.org/2000/svg">
<defs>
    <filter id="shadow" x="-20%" y="-20%" width="140%" height="140%">
        <feDropShadow dx="2" dy="4" stdDeviation="3" flood-opacity="0.3"/>
    </filter>
    <filter id="glow" x="-50%" y="-50%" width="200%" height="200%">
        <feGaussianBlur stdDeviation="8" result="blur"/>
        <feMerge><feMergeNode in="blur"/><feMergeNode in="SourceGraphic"/></feMerge>
    </filter>
    <linearGradient id="rainbow-body" x1="0%" y1="0%" x2="100%" y2="100%">
        <stop offset="0%" stop-color="#FF6B6B"/><stop offset="25%" stop-color="#FFE66D"/>
        <stop offset="50%" stop-color="#4ECDC4"/><stop offset="75%" stop-color="#45B7D1"/>
        <stop offset="100%" stop-color="#DDA0DD"/>
    </linearGradient>
    <radialGradient id="galaxy-body" cx="30%" cy="30%">
        <stop offset="0%" stop-color="#E6E6FA"/><stop offset="50%" stop-color="#9370DB"/>
        <stop offset="100%" stop-color="#1A0033"/>
    </radialGradient>
    <linearGradient id="holo-body" x1="0%" y1="0%" x2="100%" y2="100%">
        <stop offset="0%" stop-color="#FF00FF"/><stop offset="50%" stop-color="#00FFFF"/>
        <stop offset="100%" stop-color="#FFFF00"/>
    </linearGradient>
    <linearGradient id="sky-gradient" x1="0%" y1="0%" x2="0%" y2="100%">
        <stop offset="0%" stop-color="#87CEEB"/><stop offset="100%" stop-color="#E0F4FF"/>
    </linearGradient>
    <linearGradient id="grass-gradient" x1="0%" y1="0%" x2="0%" y2="100%">
        <stop offset="0%" stop-color="#90EE90"/><stop offset="100%" stop-color="#228B22"/>
    </linearGradient>
    <linearGradient id="sunset-gradient" x1="0%" y1="0%" x2="0%" y2="100%">
        <stop offset="0%" stop-color="#FF6B6B"/><stop offset="50%" stop-color="#FFE66D"/>
        <stop offset="100%" stop-color="#4ECDC4"/>
    </linearGradient>
    <linearGradient id="aurora-gradient" x1="0%" y1="0%" x2="100%" y2="100%">
        <stop offset="0%" stop-color="#0D1B2A"/><stop offset="30%" stop-color="#00FF7F"/>
        <stop offset="70%" stop-color="#FF00FF"/><stop offset="100%" stop-color="#0D1B2A"/>
    </linearGradient>
    <radialGradient id="multiverse-gradient" cx="50%" cy="50%">
        <stop offset="0%" stop-color="#FFD700"/><stop offset="40%" stop-color="#FF00FF"/>
        <stop offset="70%" stop-color="#00FFFF"/><stop offset="100%" stop-color="#000"/>
    </radialGradient>
    <linearGradient id="rift-gradient" x1="0%" y1="0%" x2="100%" y2="100%">
        <stop offset="0%" stop-color="#000"/><stop offset="30%" stop-color="#9400D3"/>
        <stop offset="50%" stop-color="#00FFFF"/><stop offset="70%" stop-color="#9400D3"/>
        <stop offset="100%" stop-color="#000"/>
    </linearGradient>
    <linearGradient id="heaven-gradient" x1="0%" y1="0%" x2="0%" y2="100%">
        <stop offset="0%" stop-color="#FFF"/><stop offset="50%" stop-color="#FFD700" stop-opacity="0.3"/>
        <stop offset="100%" stop-color="#F0F8FF"/>
    </linearGradient>
    <clipPath id="head-clip"><ellipse cx="200" cy="200" rx="110" ry="115"/></clipPath>
</defs>
<rect width="400" height="400" fill="#2C3E50"/>
<rect x="0" y="306" width="50" height="94" fill="#1A202C"/>
<rect x="22" y="316" width="6" height="8" fill="#FFD700" opacity="0.6"/>
<rect x="36" y="316" width="6" height="8" fill="#FFD700" opacity="0.6"/>
<rect x="22" y="334" width="6" height="8" fill="#FFD700" opacity="0.6"/>
<rect x="36" y="334" width="6" height="8" fill="#FFD700" opacity="0.6"/>
<rect x="22" y="352" width="6" height="8" fill="#FFD700" opacity="0.6"/>
<rect x="36" y="352" width="6" height="8" fill="#FFD700" opacity="0.6"/>
<rect x="22" y="370" width="6" height="8" fill="#FFD700" opacity="0.6"/>
<rect x="36" y="370" width="6" height="8" fill="#FFD700" opacity="0.6"/>
<rect x="22" y="388" width="6" height="8" fill="#FFD700" opacity="0.6"/>
<rect x="36" y="388" width="6" height="8" fill="#FFD700" opacity="0.6"/>
<rect x="60" y="282" width="50" height="118" fill="#1A202C"/>
<rect x="68" y="292" width="6" height="8" fill="#FFD700" opacity="0.6"/>
<rect x="96" y="292" width="6" height="8" fill="#FFD700" opacity="0.6"/>
<rect x="68" y="310" width="6" height="8" fill="#FFD700" opacity="0.6"/>
<rect x="96" y="310" width="6" height="8" fill="#FFD700" opacity="0.6"/>
<rect x="68" y="328" width="6" height="8" fill="#FFD700" opacity="0.6"/>
<rect x="96" y="328" width="6" height="8" fill="#FFD700" opacity="0.6"/>
<rect x="68" y="346" width="6" height="8" fill="#FFD700" opacity="0.6"/>
<rect x="96" y="346" width="6" height="8" fill="#FFD700" opacity="0.6"/>
<rect x="68" y="364" width="6" height="8" fill="#FFD700" opacity="0.6"/>
<rect x="96" y="364" width="6" height="8" fill="#FFD700" opacity="0.6"/>
<rect x="68" y="382" width="6" height="8" fill="#FFD700" opacity="0.6"/>
<rect x="96" y="382" width="6" height="8" fill="#FFD700" opacity="0.6"/>
<rect x="120" y="258" width="50" height="142" fill="#1A202C"/>
<rect x="128" y="268" width="6" height="8" fill="#FFD700" opacity="0.6"/>
<rect x="142" y="268" width="6" height="8" fill="#FFD700" opacity="0.6"/>
<rect x="128" y="286" width="6" height="8" fill="#FFD700" opacity="0.6"/>
<rect x="142" y="286" width="6" height="8" fill="#FFD700" opacity="0.6"/>
<rect x="128" y="304" width="6" height="8" fill="#FFD700" opacity="0.6"/>
<rect x="142" y="304" width="6" height="8" fill="#FFD700" opacity="0.6"/>
<rect x="128" y="322" width="6" height="8" fill="#FFD700" opacity="0.6"/>
<rect x="142" y="322" width="6" height="8" fill="#FFD700" opacity="0.6"/>
<rect x="128" y="340" width="6" height="8" fill="#FFD700" opacity="0.6"/>
<rect x="142" y="340" width="6" height="8" fill="#FFD700" opacity="0.6"/>
<rect x="128" y="358" width="6" height="8" fill="#FFD700" opacity="0.6"/>
<rect x="142" y="358" width="6" height="8" fill="#FFD700" opacity="0.6"/>
<rect x="128" y="376" width="6" height="8" fill="#FFD700" opacity="0.6"/>
<rect x="142" y="376" width="6" height="8" fill="#FFD700" opacity="0.6"/>
<rect x="180" y="324" width="50" height="76" fill="#1A202C"/>
<rect x="202" y="334" width="6" height="8" fill="#FFD700" opacity="0.6"/>
<rect x="216" y="334" width="6" height="8" fill="#FFD700" opacity="0.6"/>
<rect x="202" y="352" width="6" height="8" fill="#FFD700" opacity="0.6"/>
<rect x="216" y="352" width="6" height="8" fill="#FFD700" opacity="0.6"/>
<rect x="202" y="370" width="6" height="8" fill="#FFD700" opacity="0.6"/>
<rect x="216" y="370" width="6" height="8" fill="#FFD700" opacity="0.6"/>
<rect x="202" y="388" width="6" height="8" fill="#FFD700" opacity="0.6"/>
<rect x="216" y="388" width="6" height="8" fill="#FFD700" opacity="0.6"/>
<rect x="240" y="300" width="50" height="100" fill="#1A202C"/>
<rect x="248" y="310" width="6" height="8" fill="#FFD700" opacity="0.6"/>
<rect x="276" y="310" width="6" height="8" fill="#FFD700" opacity="0.6"/>
<rect x="248" y="328" width="6" height="8" fill="#FFD700" opacity="0.6"/>
<rect x="276" y="328" width="6" height="8" fill="#FFD700" opacity="0.6"/>
<rect x="248" y="346" width="6" height="8" fill="#FFD700" opacity="0.6"/>
<rect x="276" y="346" width="6" height="8" fill="#FFD700" opacity="0.6"/>
<rect x="248" y="364" width="6" height="8" fill="#FFD700" opacity="0.6"/>
<rect x="276" y="364" width="6" height="8" fill="#FFD700" opacity="0.6"/>
<rect x="248" y="382" width="6" height="8" fill="#FFD700" opacity="0.6"/>
<rect x="276" y="382" width="6" height="8" fill="#FFD700" opacity="0.6"/>
<rect x="300" y="276" width="50" height="124" fill="#1A202C"/>
<rect x="308" y="286" width="6" height="8" fill="#FFD700" opacity="0.6"/>
<rect x="322" y="286" width="6" height="8" fill="#FFD700" opacity="0.6"/>
<rect x="308" y="304" width="6" height="8" fill="#FFD700" opacity="0.6"/>
<rect x="322" y="304" width="6" height="8" fill="#FFD700" opacity="0.6"/>
<rect x="308" y="322" width="6" height="8" fill="#FFD700" opacity="0.6"/>
<rect x="322" y="322" width="6" height="8" fill="#FFD700" opacity="0.6"/>
<rect x="308" y="340" width="6" height="8" fill="#FFD700" opacity="0.6"/>
<rect x="322" y="340" width="6" height="8" fill="#FFD700" opacity="0.6"/>
<rect x="308" y="358" width="6" height="8" fill="#FFD700" opacity="0.6"/>
<rect x="322" y="358" width="6" height="8" fill="#FFD700" opacity="0.6"/>
<rect x="308" y="376" width="6" height="8" fill="#FFD700" opacity="0.6"/>
<rect x="322" y="376" width="6" height="8" fill="#FFD700" opacity="0.6"/>
<rect x="360" y="252" width="50" height="148" fill="#1A202C"/>
<rect x="382" y="262" width="6" height="8" fill="#FFD700" opacity="0.6"/>
<rect x="396" y="262" width="6" height="8" fill="#FFD700" opacity="0.6"/>
<rect x="382" y="280" width="6" height="8" fill="#FFD700" opacity="0.6"/>
<rect x="396" y="280" width="6" height="8" fill="#FFD700" opacity="0.6"/>
<rect x="382" y="298" width="6" height="8" fill="#FFD700" opacity="0.6"/>
<rect x="396" y="298" width="6" height="8" fill="#FFD700" opacity="0.6"/>
<rect x="382" y="316" width="6" height="8" fill="#FFD700" opacity="0.6"/>
<rect x="396" y="316" width="6" height="8" fill="#FFD700" opacity="0.6"/>
<rect x="382" y="334" width="6" height="8" fill="#FFD700" opacity="0.6"/>
<rect x="396" y="334" width="6" height="8" fill="#FFD700" opacity="0.6"/>
<rect x="382" y="352" width="6" height="8" fill="#FFD700" opacity="0.6"/>
<rect x="396" y="352" width="6" height="8" fill="#FFD700" opacity="0.6"/>
<rect x="382" y="370" width="6" height="8" fill="#FFD700" opacity="0.6"/>
<rect x="396" y="370" width="6" height="8" fill="#FFD700" opacity="0.6"/>
<rect x="382" y="388" width="6" height="8" fill="#FFD700" opacity="0.6"/>
<rect x="396" y="388" width="6" height="8" fill="#FFD700" opacity="0.6"/>

<ellipse cx="115" cy="140" rx="45" ry="50" fill="#8B4513" filter="url(#shadow)"/>
<ellipse cx="115" cy="140" rx="30" ry="35" fill="#FFB6C1"/>
<ellipse cx="115" cy="145" rx="18" ry="22" fill="#FF9999"/>
<ellipse cx="285" cy="140" rx="45" ry="50" fill="#8B4513" filter="url(#shadow)"/>
<ellipse cx="285" cy="140" rx="30" ry="35" fill="#FFB6C1"/>
<ellipse cx="285" cy="145" rx="18" ry="22" fill="#FF9999"/>
<ellipse cx="200" cy="200" rx="110" ry="115" fill="#8B4513" filter="url(#shadow)"/>
<ellipse cx="180" cy="140" rx="50" ry="30" fill="#A0522D" opacity="0.3"/>
<g clip-path="url(#head-clip)"><text x="125" y="125" font-size="18" fill="#00CED1" opacity="0.35">◆</text><text x="149" y="167" font-size="18" fill="#00CED1" opacity="0.35">◆</text><text x="173" y="209" font-size="18" fill="#00CED1" opacity="0.35">◆</text><text x="197" y="251" font-size="18" fill="#00CED1" opacity="0.35">◆</text><text x="221" y="143" font-size="18" fill="#00CED1" opacity="0.35">◆</text><text x="245" y="185" font-size="18" fill="#00CED1" opacity="0.35">◆</text><text x="269" y="227" font-size="18" fill="#00CED1" opacity="0.35">◆</text><text x="143" y="269" font-size="18" fill="#00CED1" opacity="0.35">◆</text></g>
<ellipse cx="200" cy="235" rx="70" ry="60" fill="#FFDAB9"/>
<ellipse cx="200" cy="250" rx="55" ry="40" fill="#DEB887" opacity="0.3"/>
<ellipse cx="162" cy="185" rx="22" ry="24" fill="#000" opacity="0.08"/>
<ellipse cx="238" cy="185" rx="22" ry="24" fill="#000" opacity="0.08"/>
<ellipse cx="162" cy="185" rx="18" ry="20" fill="white"/>
<circle cx="162" cy="185" r="12" fill="#3D2314"/>
<circle cx="162" cy="185" r="6" fill="#000"/>
<circle cx="166" cy="181" r="4" fill="white"/>
<ellipse cx="238" cy="185" rx="18" ry="20" fill="white"/>
<circle cx="238" cy="185" r="12" fill="#3D2314"/>
<circle cx="238" cy="185" r="6" fill="#000"/>
<circle cx="242" cy="181" r="4" fill="white"/>
<g>
            <ellipse cx="200" cy="230" rx="25" ry="18" fill="#8B4513"/>
            <ellipse cx="200" cy="230" rx="22" ry="15" fill="#A0522D"/>
            <ellipse cx="192" cy="230" rx="5" ry="7" fill="#5D2E0C"/>
            <ellipse cx="208" cy="230" rx="5" ry="7" fill="#5D2E0C"/>
        </g>
<line x1="182" y1="260" x2="218" y2="260" stroke="#5D2E0C" stroke-width="2"/>
<path d="M140 110 Q120 50 150 40" stroke="#8B0000" stroke-width="12" fill="none" stroke-linecap="round"/><path d="M260 110 Q280 50 250 40" stroke="#8B0000" stroke-width="12" fill="none" stroke-linecap="round"/>

<g transform="translate(325, 15)">
            <rect width="65" height="22" rx="4" fill="#A0A0A0" opacity="0.9"/>
            <text x="32" y="15" font-size="8" fill="#FFF" text-anchor="middle" font-family="sans-serif" font-weight="bold">COMMON</text>
        </g>
        <g transform="translate(10, 15)">
            <rect width="45" height="22" rx="4" fill="#333" opacity="0.8"/>
            <text x="22" y="15" font-size="9" fill="#FFF" text-anchor="middle" font-family="sans-serif">Gen 2</text>
        </g>
</svg>